<svg width="16" height="30" viewBox="0 0 16 30" fill="none" xmlns="http://www.w3.org/2000/svg">
<path opacity="0.3" d="M15.6651 0.587114C15.4897 0.401007 15.2814 0.253352 15.052 0.152605C14.8227 0.0518583 14.5768 0 14.3285 0C14.0802 0 13.8343 0.0518583 13.6049 0.152605C13.3756 0.253352 13.1673 0.401007 12.9919 0.587114L0.441666 13.8727C0.30166 14.0206 0.190584 14.1963 0.114797 14.3897C0.0390102 14.5831 0 14.7904 0 14.9998C0 15.2092 0.0390102 15.4165 0.114797 15.6099C0.190584 15.8033 0.30166 15.979 0.441666 16.1269L12.9919 29.4125C13.7319 30.1958 14.925 30.1958 15.6651 29.4125C16.4051 28.6291 15.792 27.8065 15.052 27.0231L8.44185 20.0588L3.78513 14.9482L15.6812 2.09106C15.6812 2.09106 16.4051 1.35451 15.6651 0.587114Z" fill="#192144"/>
</svg>
