<svg width="7" height="28" viewBox="0 0 7 28" fill="none" xmlns="http://www.w3.org/2000/svg">
<path d="M6.85346 0.547973C6.77674 0.374273 6.6856 0.236461 6.58526 0.142431C6.48492 0.0484011 6.37735 0 6.26871 0C6.16007 0 6.0525 0.0484011 5.95216 0.142431C5.85182 0.236461 5.76068 0.374273 5.68396 0.547973L0.193229 12.9478C0.131976 13.0859 0.0833805 13.2498 0.0502238 13.4304C0.017067 13.6109 0 13.8044 0 13.9998C0 14.1952 0.017067 14.3887 0.0502238 14.5692C0.0833805 14.7498 0.131976 14.9137 0.193229 15.0518L5.68396 27.4516C6.00772 28.1828 6.5297 28.1828 6.85346 27.4516C7.17722 26.7205 6.90902 25.9527 6.58526 25.2216L3.69331 18.7216L1.65599 13.9516L6.86055 1.95166C6.86055 1.95166 7.17722 1.26421 6.85346 0.547973Z" fill="#192144"/>
</svg>
