<svg width="8" height="28" viewBox="0 0 8 28" fill="none" xmlns="http://www.w3.org/2000/svg">
<path d="M0.20513 0.547973C0.281851 0.374273 0.372993 0.236461 0.473334 0.142431C0.573676 0.0484011 0.681246 0 0.789883 0C0.898521 0 1.00609 0.0484011 1.10643 0.142431C1.20677 0.236461 1.29791 0.374273 1.37464 0.547973L6.86536 12.9478C6.92662 13.0859 6.97521 13.2498 7.00837 13.4304C7.04153 13.6109 7.05859 13.8044 7.05859 13.9998C7.05859 14.1952 7.04153 14.3887 7.00837 14.5692C6.97521 14.7498 6.92662 14.9137 6.86536 15.0518L1.37464 27.4516C1.05087 28.1828 0.528892 28.1828 0.20513 27.4516C-0.118631 26.7205 0.149573 25.9527 0.473334 25.2216L3.36528 18.7216L5.4026 13.9516L0.198048 1.95166C0.198048 1.95166 -0.118631 1.26421 0.20513 0.547973Z" fill="#192144"/>
</svg>
