<svg width="16" height="30" viewBox="0 0 16 30" fill="none" xmlns="http://www.w3.org/2000/svg">
<path d="M0.33494 0.587114C0.510303 0.401007 0.718626 0.253352 0.947978 0.152605C1.17733 0.0518583 1.42321 0 1.67152 0C1.91983 0 2.16571 0.0518583 2.39506 0.152605C2.62441 0.253352 2.83273 0.401007 3.0081 0.587114L15.5583 13.8727C15.6983 14.0206 15.8094 14.1963 15.8852 14.3897C15.961 14.5831 16 14.7904 16 14.9998C16 15.2092 15.961 15.4165 15.8852 15.6099C15.8094 15.8033 15.6983 15.979 15.5583 16.1269L3.0081 29.4125C2.26807 30.1958 1.07497 30.1958 0.33494 29.4125C-0.405087 28.6291 0.207952 27.8065 0.947978 27.0231L7.55815 20.0588L12.2149 14.9482L0.318751 2.09106C0.318751 2.09106 -0.405087 1.35451 0.33494 0.587114Z" fill="#192144"/>
</svg>
